<?xml version="1.0" standalone="no"?>
<!DOCTYPE svg PUBLIC "-//W3C//DTD SVG 20010904//EN"
 "http://www.w3.org/TR/2001/REC-SVG-20010904/DTD/svg10.dtd">
<svg version="1.0" xmlns="http://www.w3.org/2000/svg"
 width="500.000000pt" height="500.000000pt" viewBox="0 0 500.000000 500.000000"
 preserveAspectRatio="xMidYMid meet">
<metadata>
Created by potrace 1.14, written by Peter Selinger 2001-2017
</metadata>
<g transform="translate(0.000000,500.000000) scale(0.100000,-0.100000)"
fill="#000000" stroke="none">
<path d="M2345 3304 c-171 -26 -317 -78 -469 -168 -150 -89 -279 -212 -380
-364 -55 -83 -136 -243 -136 -269 0 -4 11 -9 25 -9 17 -1 26 5 31 20 14 46 89
185 140 256 63 89 194 220 284 283 110 76 249 141 370 170 109 27 121 28 255
34 365 15 702 -143 948 -442 40 -49 122 -188 152 -259 23 -55 31 -65 49 -62
29 5 24 30 -23 126 -163 332 -448 566 -801 657 -77 20 -126 25 -255 28 -88 2
-173 1 -190 -1z"/>
<path d="M2425 3209 c-117 -10 -159 -18 -249 -46 -301 -94 -546 -307 -684
-595 -17 -37 -32 -69 -32 -71 0 -2 12 -3 26 -3 21 0 31 11 61 71 55 111 121
203 203 285 199 199 465 311 740 312 418 2 774 -220 966 -603 29 -58 38 -68
57 -65 24 3 24 4 6 49 -39 96 -129 230 -216 322 -185 197 -474 335 -723 344
-35 1 -67 4 -70 5 -3 1 -41 -1 -85 -5z"/>
<path d="M2427 3114 c-1 -1 -27 -5 -57 -8 -260 -31 -513 -178 -674 -393 -55
-74 -126 -195 -126 -217 0 -6 50 0 55 6 1 2 19 34 39 71 148 268 421 447 741
485 367 44 753 -160 937 -495 33 -61 43 -72 64 -71 13 1 24 4 24 5 0 18 -82
158 -130 221 -140 186 -377 337 -590 375 -14 3 -42 8 -64 12 -35 7 -213 14
-219 9z"/>
<path d="M2486 2945 c-6 -24 -22 -30 -66 -26 -8 1 -3 -8 13 -20 24 -18 27 -26
21 -57 l-7 -36 28 22 c24 19 30 20 44 9 35 -30 41 -29 29 4 -10 29 -9 34 10
50 29 23 28 29 -8 29 -23 0 -31 5 -36 25 -3 14 -10 25 -14 25 -4 0 -11 -11
-14 -25z"/>
<path d="M2148 2871 c3 -34 1 -39 -22 -45 -29 -7 -26 -26 4 -26 23 0 44 -35
36 -57 -5 -13 -4 -14 8 -4 9 7 18 20 21 30 4 13 14 16 43 13 l37 -3 -23 20
c-24 21 -24 49 2 80 8 10 1 9 -23 -3 -33 -17 -34 -17 -60 8 l-26 25 3 -38z"/>
<path d="M2823 2879 c-20 -21 -21 -21 -49 -3 -28 19 -28 19 -20 -1 19 -46 18
-56 -5 -76 l-24 -21 37 4 c33 3 39 1 49 -25 13 -31 29 -20 29 21 0 18 6 22 30
22 37 0 39 13 4 29 -22 9 -25 17 -22 41 5 35 0 37 -29 9z"/>
<path d="M1949 2687 c-15 -20 -20 -21 -48 -10 -36 13 -37 11 -15 -23 15 -23
15 -26 0 -43 -23 -25 -20 -34 11 -26 21 5 31 1 49 -22 l23 -28 1 33 c0 18 6
34 13 36 51 16 53 18 25 29 -27 10 -31 19 -31 60 0 23 -8 21 -28 -6z"/>
<path d="M3025 2680 c5 -28 2 -32 -27 -42 l-33 -12 33 -13 c27 -11 32 -18 32
-46 l1 -32 23 28 c18 23 28 27 49 22 31 -8 34 1 11 26 -15 17 -15 20 0 43 22
35 21 37 -16 24 -28 -10 -33 -9 -46 10 -21 31 -33 27 -27 -8z"/>
<path d="M421 2312 c-5 -10 -24 -54 -41 -98 -17 -43 -43 -98 -56 -121 l-25
-43 47 0 c46 0 46 0 31 23 -22 33 -7 50 47 52 36 2 49 -2 56 -15 7 -13 5 -21
-5 -30 -24 -20 -7 -30 51 -30 57 0 64 8 38 38 -9 11 -37 68 -63 128 -26 59
-53 110 -59 112 -6 2 -15 -5 -21 -16z m24 -124 l15 -38 -39 0 -39 0 17 45 c17
49 22 48 46 -7z"/>
<path d="M773 2323 c-34 -7 -81 -59 -89 -98 -22 -117 62 -198 181 -172 53 11
65 23 58 58 -3 16 0 35 7 44 18 22 5 32 -45 30 -55 -2 -66 -11 -37 -31 48 -33
13 -95 -42 -74 -55 21 -77 141 -35 194 29 36 87 34 106 -4 18 -37 38 -32 38
10 0 28 -4 35 -25 41 -27 8 -83 9 -117 2z"/>
<path d="M982 2321 c-8 -5 -5 -12 7 -23 16 -14 18 -29 17 -114 -2 -65 -6 -99
-14 -102 -7 -2 -12 -10 -12 -18 0 -10 15 -14 60 -14 49 0 58 3 54 15 -4 8 -10
15 -15 15 -5 0 -9 18 -9 40 0 58 24 52 57 -15 27 -54 28 -55 70 -55 43 0 55
11 30 27 -7 4 -27 29 -44 54 l-31 47 24 11 c43 19 44 99 1 123 -24 13 -177 20
-195 9z m151 -42 c25 -36 -2 -89 -45 -89 -15 0 -18 9 -18 55 0 52 1 55 24 55
14 0 31 -9 39 -21z"/>
<path d="M1263 2317 c-3 -5 2 -14 11 -19 23 -13 24 -213 1 -222 -8 -3 -15 -10
-15 -16 0 -6 41 -10 109 -10 l109 0 5 33 c7 47 -9 57 -36 23 -15 -19 -32 -28
-50 -28 -35 0 -39 3 -42 46 -3 49 17 64 44 35 26 -28 33 -22 34 30 2 32 -2 41
-14 41 -9 0 -19 -7 -23 -15 -3 -8 -14 -15 -24 -15 -16 0 -19 7 -18 47 1 28 6
48 14 51 24 8 61 -8 67 -28 3 -11 13 -20 21 -20 11 0 14 10 12 38 l-3 37 -98
1 c-54 0 -101 -4 -104 -9z"/>
<path d="M1634 2322 c-12 -8 -27 -42 -74 -159 -18 -46 -36 -83 -41 -83 -5 0
-9 -7 -9 -15 0 -11 11 -15 40 -15 39 0 54 15 26 26 -10 4 -12 12 -7 27 11 30
97 33 113 4 8 -16 7 -22 -6 -29 -28 -16 -7 -28 50 -28 41 0 54 4 54 15 0 8 -4
15 -8 15 -5 0 -33 56 -63 125 -30 69 -56 125 -59 125 -3 0 -10 -4 -16 -8z m21
-154 c6 -15 2 -18 -29 -18 -41 0 -41 0 -19 58 l16 43 12 -33 c7 -18 16 -41 20
-50z"/>
<path d="M1806 2306 c-16 -58 8 -77 38 -31 9 14 23 25 31 25 12 0 15 -20 15
-109 0 -100 -2 -109 -20 -114 -11 -3 -20 -10 -20 -16 0 -7 27 -11 75 -11 62 0
73 2 69 15 -4 8 -12 15 -20 15 -17 0 -16 -8 -18 118 -1 98 0 103 19 100 11 -2
24 -13 30 -26 5 -12 17 -21 25 -20 13 3 16 19 11 64 -1 7 -40 11 -115 10 -107
0 -115 -1 -120 -20z"/>
<path d="M2073 2313 c0 -7 6 -13 14 -13 14 0 15 -4 17 -125 1 -64 -2 -82 -16
-94 -10 -9 -18 -19 -18 -23 0 -5 49 -8 109 -8 l109 0 7 31 c8 36 -10 64 -25
39 -23 -37 -29 -41 -59 -42 -37 -1 -38 0 -41 32 -5 55 -1 70 18 63 9 -4 21
-12 25 -20 17 -27 32 -13 33 32 1 47 -20 70 -31 34 -4 -10 -15 -19 -25 -19
-20 0 -28 26 -21 73 5 38 51 38 79 0 24 -33 39 -24 34 20 l-4 33 -102 0 c-77
0 -103 -3 -103 -13z"/>
<path d="M2330 2315 c0 -7 7 -15 15 -19 12 -4 15 -26 15 -104 0 -76 -4 -102
-15 -112 -27 -22 -16 -30 45 -30 61 0 72 8 45 30 -9 8 -15 26 -13 47 3 49 27
39 61 -27 27 -55 28 -55 67 -52 26 3 40 9 40 18 0 8 -4 14 -9 14 -5 0 -23 20
-40 45 l-31 46 27 23 c33 28 34 79 3 110 -18 18 -33 21 -115 22 -70 1 -95 -2
-95 -11z m147 -23 c6 -4 14 -19 18 -34 8 -30 -22 -68 -53 -68 -16 0 -19 9 -20
55 0 50 1 55 21 55 12 0 27 -4 34 -8z"/>
<path d="M2700 2318 c0 -5 6 -16 14 -23 18 -19 17 -206 -2 -213 -6 -2 -12 -10
-12 -18 0 -10 15 -14 60 -14 49 0 58 3 54 15 -4 8 -10 15 -15 15 -5 0 -9 18
-9 40 0 58 24 52 57 -15 27 -54 28 -55 70 -55 48 0 52 5 23 35 -37 37 -71 95
-55 95 21 0 45 41 45 77 0 51 -39 70 -145 71 -48 0 -85 -5 -85 -10z m153 -39
c25 -36 -2 -89 -45 -89 -15 0 -18 9 -18 55 0 52 1 55 24 55 14 0 31 -9 39 -21z"/>
<path d="M2989 2320 c-8 -5 -6 -11 7 -18 16 -9 18 -23 18 -111 -1 -78 -5 -103
-18 -116 -9 -9 -16 -18 -16 -21 0 -2 49 -4 109 -4 l109 0 6 32 c9 44 -8 58
-33 26 -20 -25 -61 -40 -79 -29 -9 6 -15 45 -13 83 1 20 29 14 47 -10 23 -31
35 5 25 80 -2 13 -31 -4 -31 -18 0 -8 -10 -14 -22 -14 -21 0 -23 4 -20 50 4
47 5 50 32 50 19 0 35 -9 48 -27 24 -33 39 -24 34 20 l-4 33 -93 1 c-52 0 -99
-3 -106 -7z"/>
<path d="M3240 2314 c0 -6 7 -14 15 -18 12 -4 15 -26 15 -104 0 -76 -4 -102
-15 -112 -28 -23 -15 -30 55 -30 58 0 68 3 64 15 -4 8 -12 15 -19 15 -20 0
-25 25 -25 126 0 86 2 94 19 94 24 0 51 -25 52 -48 4 -53 -11 -82 -43 -82 -29
0 -16 -25 13 -26 58 -1 99 43 99 106 0 30 -28 69 -52 71 -7 1 -50 3 -95 4 -60
1 -83 -2 -83 -11z"/>
<path d="M3500 2315 c0 -7 5 -15 12 -17 7 -3 12 -37 13 -96 1 -55 7 -103 15
-117 22 -40 92 -51 147 -23 27 13 35 45 37 151 2 52 7 82 14 85 28 9 10 28
-28 29 -42 1 -49 -9 -26 -39 20 -26 14 -172 -8 -197 -19 -21 -53 -18 -73 7
-19 24 -17 186 2 202 23 19 10 27 -50 28 -39 0 -55 -4 -55 -13z"/>
<path d="M3780 2314 c0 -6 7 -14 15 -18 12 -4 15 -26 15 -110 0 -83 -3 -105
-15 -110 -8 -3 -15 -10 -15 -17 0 -7 31 -10 101 -7 92 3 103 5 120 27 10 13
19 39 19 58 0 27 -6 37 -29 50 -27 16 -28 18 -10 32 16 15 23 37 20 68 -2 24
-47 37 -133 39 -64 1 -88 -3 -88 -12z m141 -24 c37 -20 20 -73 -26 -82 -17 -3
-19 3 -20 45 -1 50 8 57 46 37z m21 -133 c15 -22 4 -69 -18 -78 -32 -11 -46 4
-48 56 l-3 47 31 -6 c16 -4 34 -12 38 -19z"/>
<path d="M4055 2320 c-3 -5 2 -13 12 -18 14 -8 17 -26 17 -112 1 -86 -2 -103
-17 -111 -37 -21 -13 -29 92 -29 l109 0 5 33 c7 46 -9 57 -36 25 -22 -26 -34
-32 -69 -29 -16 1 -18 13 -18 106 0 86 3 106 16 113 9 5 14 14 11 19 -8 12
-115 14 -122 3z"/>
<path d="M4303 2317 c-3 -5 2 -14 11 -19 25 -14 24 -205 -1 -224 -27 -19 -11
-25 58 -22 61 3 62 3 44 22 -16 15 -19 35 -20 108 -1 59 3 95 12 106 7 9 13
22 13 28 0 13 -108 15 -117 1z"/>
<path d="M4531 2312 c-19 -9 -43 -29 -53 -43 -44 -59 -20 -172 42 -204 42 -21
111 -21 144 0 29 19 26 41 -4 25 -24 -13 -66 -13 -91 0 -46 25 -63 124 -29
178 16 26 26 32 54 32 29 0 36 -4 45 -31 13 -38 35 -33 39 9 3 27 -1 34 -23
42 -39 15 -86 12 -124 -8z"/>
<path d="M2133 1873 c-15 -5 -18 -133 -4 -133 5 0 11 12 13 27 2 16 10 27 21
29 36 5 47 14 47 38 0 14 -4 27 -8 30 -14 8 -56 14 -69 9z m52 -38 c0 -13 -8
-21 -22 -23 -19 -3 -23 1 -23 23 0 22 4 26 23 23 14 -2 22 -10 22 -23z"/>
<path d="M2623 1868 c-39 -19 -47 -76 -16 -110 19 -22 62 -23 89 -4 26 20 11
31 -18 13 -30 -20 -64 -7 -70 27 -10 52 41 85 77 50 9 -9 19 -13 22 -10 9 9
-17 33 -42 39 -11 3 -30 1 -42 -5z"/>
<path d="M2379 1843 c-31 -78 -37 -103 -28 -103 5 0 12 7 15 15 4 8 18 15 34
15 16 0 30 -7 34 -15 3 -8 10 -15 15 -15 13 0 -33 123 -48 128 -6 2 -16 -9
-22 -25z m31 -17 c0 -8 3 -21 6 -29 4 -11 0 -15 -13 -13 -10 2 -18 8 -17 14 1
7 2 19 3 27 1 19 21 20 21 1z"/>
</g>
</svg>
